<svg version="1.1" xmlns="http://www.w3.org/2000/svg" viewBox="0 0 1229.860015666131 651.4403565347195" width="1229.860015666131" height="651.4403565347195" filter="invert(93%) hue-rotate(180deg)">
  <!-- svg-source:excalidraw -->
  
  <defs>
    <style class="style-fonts">
      @font-face {
        font-family: "Virgil";
        src: url("https://file%2B.vscode-resource.vscode-cdn.net/c%3A/Users/mmalecki/.vscode/extensions/pomdtr.excalidraw-editor-3.6.1/public//dist/excalidraw-assets/Virgil.woff2");
      }
      @font-face {
        font-family: "Cascadia";
        src: url("https://file%2B.vscode-resource.vscode-cdn.net/c%3A/Users/mmalecki/.vscode/extensions/pomdtr.excalidraw-editor-3.6.1/public//dist/excalidraw-assets/Cascadia.woff2");
      }
    </style>
    
  </defs>
  <g stroke-linecap="round"><g transform="translate(433.7776422403939 640.5451459773258) rotate(0 -2.8122878382541217 -314.824967709966)"><path d="M0.29 -1.13 C-0.4 -105.87, -3.93 -523.8, -4.98 -628.62 M-1.02 0.9 C-1.79 -104.21, -5.48 -525.51, -5.91 -630.55" stroke="#228be6" stroke-width="4" fill="none"></path></g><g transform="translate(433.7776422403939 640.5451459773258) rotate(0 -2.8122878382541217 -314.824967709966)"><path d="M2.66 -602.38 C2.82 -610.46, -2 -613.95, -7.75 -630.91 M5.23 -601.95 C2.35 -609.33, 0.16 -615.85, -5.72 -630.83" stroke="#228be6" stroke-width="4" fill="none"></path></g><g transform="translate(433.7776422403939 640.5451459773258) rotate(0 -2.8122878382541217 -314.824967709966)"><path d="M-17.86 -602.25 C-13.01 -610.4, -13.14 -613.93, -7.75 -630.91 M-15.29 -601.81 C-12.97 -609.18, -9.96 -615.73, -5.72 -630.83" stroke="#228be6" stroke-width="4" fill="none"></path></g></g><mask></mask><g stroke-linecap="round"><g transform="translate(11.777642240393902 496.5451459773258) rotate(0 603.1523655926716 -3.4902756188064927)"><path d="M-0.21 0.77 C201.27 -0.41, 1006.99 -6.43, 1208.08 -7.75 M-1.78 0.13 C199.71 -0.86, 1006.54 -5.6, 1207.7 -6.61" stroke="#228be6" stroke-width="4" fill="none"></path></g><g transform="translate(11.777642240393902 496.5451459773258) rotate(0 603.1523655926716 -3.4902756188064927)"><path d="M1180.86 5.61 C1184.89 0.32, 1192.38 0.24, 1207.13 -8.13 M1179.64 4.42 C1186.27 0.92, 1191.62 -0.66, 1207.9 -6.37" stroke="#228be6" stroke-width="4" fill="none"></path></g><g transform="translate(11.777642240393902 496.5451459773258) rotate(0 603.1523655926716 -3.4902756188064927)"><path d="M1180.74 -14.91 C1184.69 -15.44, 1192.21 -10.77, 1207.13 -8.13 M1179.53 -16.1 C1186.23 -15.41, 1191.61 -12.8, 1207.9 -6.37" stroke="#228be6" stroke-width="4" fill="none"></path></g></g><mask></mask><g stroke-linecap="round"><g transform="translate(291.7776422403939 596.5451459773258) rotate(0 317.81384994274003 -225.4494139949046)"><path d="M-0.24 -0.87 C105.86 -76.17, 531.19 -377.22, 637.45 -452.18 M-1.82 1.29 C104.08 -73.88, 530.32 -375.58, 636.74 -451.27" stroke="#228be6" stroke-width="4" fill="none"></path></g><g transform="translate(291.7776422403939 596.5451459773258) rotate(0 317.81384994274003 -225.4494139949046)"><path d="M618.23 -425.84 C624.16 -435.28, 633.07 -445.02, 638.29 -451.22 M619.39 -426.01 C625.57 -435.92, 633.61 -446.57, 635.83 -450.75" stroke="#228be6" stroke-width="4" fill="none"></path></g><g transform="translate(291.7776422403939 596.5451459773258) rotate(0 317.81384994274003 -225.4494139949046)"><path d="M606.36 -442.58 C616.66 -445.74, 630 -449.24, 638.29 -451.22 M607.52 -442.74 C618.46 -446.04, 631.12 -450.16, 635.83 -450.75" stroke="#228be6" stroke-width="4" fill="none"></path></g></g><mask></mask><g mask="url(#mask-EIpJy8zaDV8jNXeLBgYUg)" stroke-linecap="round"><g transform="translate(439.7776422403939 490.5451459773258) rotate(0 86 -177.5)"><path d="M0 0 C28.67 -59.17, 143.33 -295.83, 172 -355 M0 0 C28.67 -59.17, 143.33 -295.83, 172 -355" stroke="#1e1e1e" stroke-width="1" fill="none"></path></g><g transform="translate(439.7776422403939 490.5451459773258) rotate(0 86 -177.5)"><path d="M168.94 -325.16 C170.09 -336.39, 171.24 -347.63, 172 -355 M168.94 -325.16 C169.97 -335.15, 170.99 -345.14, 172 -355" stroke="#1e1e1e" stroke-width="1" fill="none"></path></g><g transform="translate(439.7776422403939 490.5451459773258) rotate(0 86 -177.5)"><path d="M150.47 -334.1 C158.58 -341.97, 166.69 -349.84, 172 -355 M150.47 -334.1 C157.68 -341.1, 164.89 -348.09, 172 -355" stroke="#1e1e1e" stroke-width="1" fill="none"></path></g></g><mask id="mask-EIpJy8zaDV8jNXeLBgYUg"><rect x="0" y="0" fill="#fff" width="711.7776422403939" height="945.5451459773258"></rect><rect x="516.4396448038706" y="295.5451459773258" fill="#000" width="18.675994873046875" height="35" opacity="1"></rect></mask><g transform="translate(516.4396448038706 295.5451459773258) rotate(0 9.337997436523438 17.5)"><text x="9.337997436523438" y="0" font-family="Virgil, Segoe UI Emoji" font-size="28px" fill="#1e1e1e" text-anchor="middle" style="white-space: pre;" direction="ltr" dominant-baseline="text-before-edge">a</text></g><g mask="url(#mask-GxIrRSCsdnKp6ODBt4Jpu)" stroke-linecap="round"><g transform="translate(436.7776422403939 492.5451459773258) rotate(0 163.5 -143)"><path d="M0 0 C54.5 -47.67, 272.5 -238.33, 327 -286 M0 0 C54.5 -47.67, 272.5 -238.33, 327 -286" stroke="#1e1e1e" stroke-width="1" fill="none"></path></g><g transform="translate(436.7776422403939 492.5451459773258) rotate(0 163.5 -143)"><path d="M312.54 -259.72 C315.73 -265.52, 318.92 -271.32, 327 -286 M312.54 -259.72 C317.28 -268.33, 322.02 -276.95, 327 -286" stroke="#1e1e1e" stroke-width="1" fill="none"></path></g><g transform="translate(436.7776422403939 492.5451459773258) rotate(0 163.5 -143)"><path d="M299.03 -275.16 C305.2 -277.56, 311.38 -279.95, 327 -286 M299.03 -275.16 C308.2 -278.72, 317.37 -282.27, 327 -286" stroke="#1e1e1e" stroke-width="1" fill="none"></path></g></g><mask id="mask-GxIrRSCsdnKp6ODBt4Jpu"><rect x="0" y="0" fill="#fff" width="863.7776422403939" height="878.5451459773258"></rect><rect x="593.1656427286753" y="332.0451459773258" fill="#000" width="14.2239990234375" height="35" opacity="1"></rect></mask><g transform="translate(593.1656427286753 332.0451459773258) rotate(0 7.11199951171875 17.5)"><text x="7.11199951171875" y="0" font-family="Virgil, Segoe UI Emoji" font-size="28px" fill="#1e1e1e" text-anchor="middle" style="white-space: pre;" direction="ltr" dominant-baseline="text-before-edge">b</text></g><g mask="url(#mask-cCmiHBh8-6qaMe_Xcnde_)" stroke-linecap="round"><g transform="translate(767.7776422403939 201.54514597732577) rotate(0 -75.5 -33)"><path d="M0 0 C-25.17 -11, -125.83 -55, -151 -66 M0 0 C-25.17 -11, -125.83 -55, -151 -66" stroke="#ff8787" stroke-width="1" fill="none"></path></g><g transform="translate(767.7776422403939 201.54514597732577) rotate(0 -75.5 -33)"><path d="M-121.06 -64.11 C-129.91 -64.67, -138.76 -65.23, -151 -66 M-121.06 -64.11 C-132.31 -64.82, -143.56 -65.53, -151 -66" stroke="#ff8787" stroke-width="1" fill="none"></path></g><g transform="translate(767.7776422403939 201.54514597732577) rotate(0 -75.5 -33)"><path d="M-129.28 -45.31 C-135.7 -51.42, -142.12 -57.54, -151 -66 M-129.28 -45.31 C-137.44 -53.08, -145.6 -60.86, -151 -66" stroke="#ff8787" stroke-width="1" fill="none"></path></g></g><mask id="mask-cCmiHBh8-6qaMe_Xcnde_"><rect x="0" y="0" fill="#fff" width="1018.7776422403939" height="416.5451459773258"></rect><rect x="670.0736474894175" y="151.04514597732577" fill="#000" width="44.407989501953125" height="35" opacity="1"></rect></mask><g transform="translate(670.0736474894175 151.04514597732577) rotate(0 22.203994750976562 17.5)"><text x="22.203994750976562" y="0" font-family="Virgil, Segoe UI Emoji" font-size="28px" fill="#1e1e1e" text-anchor="middle" style="white-space: pre;" direction="ltr" dominant-baseline="text-before-edge">a-b</text></g><g mask="url(#mask-lKFzruJJE7DyDNgxlBhww)" stroke-linecap="round"><g transform="translate(433.7776422403939 494.5451459773258) rotate(0 -205.5 60.5)"><path d="M0 0 C-68.5 20.17, -342.5 100.83, -411 121 M0 0 C-68.5 20.17, -342.5 100.83, -411 121" stroke="#1e1e1e" stroke-width="1" fill="none"></path></g><g transform="translate(433.7776422403939 494.5451459773258) rotate(0 -205.5 60.5)"><path d="M-386.85 103.2 C-395.49 109.56, -404.13 115.93, -411 121 M-386.85 103.2 C-392.43 107.31, -398.01 111.42, -411 121" stroke="#1e1e1e" stroke-width="1" fill="none"></path></g><g transform="translate(433.7776422403939 494.5451459773258) rotate(0 -205.5 60.5)"><path d="M-381.06 122.88 C-391.77 122.21, -402.48 121.54, -411 121 M-381.06 122.88 C-387.97 122.45, -394.89 122.01, -411 121" stroke="#1e1e1e" stroke-width="1" fill="none"></path></g></g><mask id="mask-lKFzruJJE7DyDNgxlBhww"><rect x="0" y="0" fill="#fff" width="944.7776422403939" height="715.5451459773258"></rect><rect x="221.24964236246433" y="537.5451459773258" fill="#000" width="14.055999755859375" height="35" opacity="1"></rect></mask><g transform="translate(221.24964236246421 537.5451459773258) rotate(0 7.0279998779296875 17.5)"><text x="7.0279998779296875" y="0" font-family="Virgil, Segoe UI Emoji" font-size="28px" fill="#1e1e1e" text-anchor="middle" style="white-space: pre;" direction="ltr" dominant-baseline="text-before-edge">c</text></g><g mask="url(#mask--l0sG4DjAnzDqRAwG68g-)" stroke-linecap="round"><g transform="translate(26.777642240393902 612.5451459773258) rotate(0 289 -237.5)"><path d="M0 0 C96.33 -79.17, 481.67 -395.83, 578 -475 M0 0 C96.33 -79.17, 481.67 -395.83, 578 -475" stroke="#ff8787" stroke-width="1" fill="none"></path></g><g transform="translate(26.777642240393902 612.5451459773258) rotate(0 289 -237.5)"><path d="M562.73 -449.17 C566.91 -456.24, 571.09 -463.31, 578 -475 M562.73 -449.17 C567.08 -456.53, 571.43 -463.89, 578 -475" stroke="#ff8787" stroke-width="1" fill="none"></path></g><g transform="translate(26.777642240393902 612.5451459773258) rotate(0 289 -237.5)"><path d="M549.71 -465.03 C557.45 -467.76, 565.2 -470.49, 578 -475 M549.71 -465.03 C557.76 -467.87, 565.82 -470.71, 578 -475" stroke="#ff8787" stroke-width="1" fill="none"></path></g></g><mask id="mask--l0sG4DjAnzDqRAwG68g-"><rect x="0" y="0" fill="#fff" width="704.7776422403939" height="1187.5451459773258"></rect><rect x="293.6576471232064" y="357.5451459773258" fill="#000" width="44.239990234375" height="35" opacity="1"></rect></mask><g transform="translate(293.6576471232065 357.5451459773258) rotate(0 22.1199951171875 17.5)"><text x="22.1199951171875" y="0" font-family="Virgil, Segoe UI Emoji" font-size="28px" fill="#1e1e1e" text-anchor="middle" style="white-space: pre;" direction="ltr" dominant-baseline="text-before-edge">a-c</text></g></svg>